<svg width="256" height="256" xmlns="http://www.w3.org/2000/svg" xmlns:svg="http://www.w3.org/2000/svg">
 <g class="layer">
  <title>Layer 1</title>
  <path d="m176.53,84.86c0.7,-18.29 -3.91,-25.67 -7.38,-30.95c-3.52,-4.92 -11.95,-12.66 -22.32,-12.98c-9.81,-0.31 -12.17,5.11 -21.21,5.44c-1.48,-16.47 10.95,-25.51 10.95,-25.51s-3.4,-4.81 -6.21,-5.98c-3.24,2.88 -11,11.14 -12.66,22.23c-1.75,-16.34 -9.91,-26.78 -28.02,-34.06c-5.14,17.98 11.84,34.79 22.87,41.43c-5.85,-1.97 -10.92,-4.56 -17.74,-3.22c-11.91,2.34 -21.73,9.54 -27.32,25.35s1.97,34.23 3.62,39.5c1.64,5.27 13.83,27.65 23.37,30.94c9.55,3.3 9.55,1.81 14.65,-0.16s12.84,-5.6 24.2,-1.48c11.36,4.12 12.84,5.1 19.91,0.49c7.09,-4.61 16.3,-18.92 18.44,-23.04c2.14,-4.11 3.29,-6.26 3.95,-8.39c0.83,-6.27 0.27,-3.22 0.9,-19.61" fill="#d1d2d3" id="svg_1"/>
  <path d="m177.22,110.16l0,8.94a3.79,3.79 0 0 0 3.79,3.8l14.07,0a17.07,17.07 0 0 1 17.06,17.06l0,42.61l0,9.29l0,7.31l0,2.26c0,4.54 -1.8,8.89 -5.02,12.09a17.07,17.07 0 0 1 -12.11,4.98c-4.75,0.01 -9.75,0 -13.92,-0.06a3.79,3.79 0 0 0 -3.88,3.79l0,5.07l0,2.24l0,1.69a2774,2774 0 0 1 -0.01,8c0,1.12 -0.5,2.19 -1.37,2.9c-4.34,3.29 -19.53,10.56 -53.5,10.56c-33.26,0 -49.1,-5.43 -54.04,-8.29a3.8,3.8 0 0 1 -1.76,-3.19c-0.01,-7.37 -0.07,-33.63 -0.13,-60.72l-0.01,-3.7l-0.14,-66.32l0,-0.31l110.97,0zm16.81,27.93l-12.08,0a4.74,4.74 0 0 0 -3.17,1.22l-0.18,0.17a4.74,4.74 0 0 0 -1.38,3.1l-0.01,0.25l0,55.17c0,1.17 0.44,2.3 1.22,3.17l0.17,0.18a4.73,4.73 0 0 0 3.1,1.38l0.25,0.01l12.08,0a4.74,4.74 0 0 0 3.17,-1.22l0.19,-0.17a4.75,4.75 0 0 0 1.38,-3.1l0,-0.25l0,-55.17a4.75,4.75 0 0 0 -1.21,-3.17l-0.17,-0.18a4.75,4.75 0 0 0 -3.11,-1.39l-0.25,0z" fill="#fefefe" id="svg_2"/>
  <path d="m77.19,109.06l0,117.56a3.79,3.79 0 0 0 1.9,3.29c4.8,2.28 18.72,7.74 43.13,7.74c24.56,0 38.07,-6.63 42.6,-9.36a3.78,3.78 0 0 0 1.73,-3.18c0.01,-15.59 0.01,-116.05 0.01,-116.05l-89.37,0z" fill="#faaf41" id="svg_3"/>
  <path d="m90.33,123.71c2.8,0 5.09,2.19 5.25,4.95l0.01,0.31l0,90.85a5.26,5.26 0 0 1 -10.51,0.31l-0.01,-0.31l0,-90.85a5.26,5.26 0 0 1 5.26,-5.26" fill="#ffda95" id="svg_4"/>
  <path d="m140.82,133.19c0,-1.9 -1.12,-4.16 -2.95,-5.3a15.85,15.85 0 0 1 -6.58,-7.87c-24.27,0.82 -46.41,-3.44 -57.57,-6.45a92,92 0 0 0 -8.7,-2.02c-6.67,-1.33 -11.75,-7.19 -11.75,-14.24c0,-7.76 6.16,-14.07 13.85,-14.35c1.48,-8.2 8.65,-14.43 17.29,-14.43c9.71,0 17.58,7.87 17.58,17.58a17.6,17.6 0 0 1 -1.01,5.82l0.05,0.01c2.17,-6.78 8.52,-11.69 16.02,-11.69c7.45,0 13.77,4.85 15.98,11.57a17,17 0 0 1 -0.1,-1.84c0,-10.1 8.18,-18.29 18.28,-18.29c8.18,0 15.1,5.37 17.44,12.76l1.59,-0.41a14.3,14.3 0 0 1 7.05,-1.86c7.93,0 14.37,6.44 14.36,14.37c0,7.27 -5.39,13.28 -12.4,14.23a21,21 0 0 0 -4.63,1.21a115,115 0 0 1 -12.72,3.94a15.8,15.8 0 0 1 -1.82,5.91a19.66,19.66 0 0 0 -2.25,10.67c0,0.23 0.01,1.4 0.01,1.63c0,4.69 -3.81,7.55 -8.52,7.55a8.51,8.51 0 0 1 -8.5,-8.5" fill="#fefefe" id="svg_5"/>
  <path d="m137.4,112.43l0.1,0.31l-0.03,-0.31l-0.07,0z" fill="#010202" id="svg_6"/>
  <path d="m88.19,0l2.34,0.94c15.03,6.04 23.77,14.34 27.57,26.58c2.4,-5.32 6.04,-10.05 10.28,-13.91l1.53,-1.37l1.32,0.54a9,9 0 0 1 1.71,0.98c0.89,0.63 1.79,1.45 2.71,2.42a34,34 0 0 1 1.97,2.3l0.33,0.44l0.38,0.5l1.39,1.96l-1.82,1.32l-0.25,0.19l-0.34,0.28l-0.42,0.37l-0.49,0.45a28.6,28.6 0 0 0 -3.52,4.06c-3.15,4.38 -5.03,9.44 -5.11,15.19l0,0.67l0.49,-0.08c1.69,-0.31 3.28,-0.91 5.61,-1.96l1.33,-0.61c4.49,-2.04 7.19,-2.74 11.7,-2.6c9.58,0.3 18.79,6.51 24.15,14.01q0.18,0.27 0.35,0.55l0.69,1.09l0.66,1.09c4.09,6.95 6.07,13.69 6.14,24.6c8.44,0.8 15.04,7.9 15.03,16.55c0,8.34 -6.17,15.36 -14.35,16.48l-0.09,0.02l0,6.05c0,0.84 0.69,1.53 1.53,1.53l14.07,0a19.34,19.34 0 0 1 19.33,19.33l0,61.47c0,5.14 -2.05,10.07 -5.69,13.7a19.32,19.32 0 0 1 -13.7,5.64l-2.13,0l-4.14,0l-5.03,-0.03l-2.68,-0.03a1.52,1.52 0 0 0 -1.56,1.52l0,12.44l-0.01,4.56c0,1.8 -0.8,3.5 -2.27,4.72c-2.07,1.56 -4.81,3.04 -8.21,4.37l-1.16,0.44a70,70 0 0 1 -5.82,1.84l-1.42,0.38l-1.47,0.36q-2.24,0.53 -4.7,0.99l-1.66,0.3l-1.71,0.29q-2.16,0.34 -4.47,0.64l-1.87,0.22l-1.91,0.21l-1.96,0.19l-2.01,0.17l-2.06,0.15l-2.09,0.13q-0.53,0.03 -1.07,0.06l-2.17,0.1l-2.21,0.07q-1.11,0.04 -2.25,0.06l-2.3,0.03q-1.16,0.02 -2.35,0.02l-1.2,0q-1.19,-0.01 -2.36,-0.02l-2.32,-0.04l-2.28,-0.06q-1.13,-0.03 -2.24,-0.07l-2.19,-0.09q-0.54,-0.02 -1.07,-0.05l-2.13,-0.12l-2.07,-0.13l-2.03,-0.14a88,88 0 0 1 -1,-0.08l-1.96,-0.17q-0.48,-0.05 -0.96,-0.09l-1.89,-0.2l-1.85,-0.2q-0.45,-0.06 -0.9,-0.11l-1.77,-0.23l-1.73,-0.24l-1.68,-0.25q-1.24,-0.2 -2.42,-0.41l-1.56,-0.28l-0.75,-0.15l-1.49,-0.3l-1.43,-0.31l-1.38,-0.33l-1.33,-0.33a72,72 0 0 1 -3.7,-1.06l-1.13,-0.38a45,45 0 0 1 -1.6,-0.57l-1,-0.39q-2.19,-0.9 -3.84,-1.86a6.07,6.07 0 0 1 -2.81,-5.1l-0.27,-127.58c-7.53,-1.78 -12.99,-8.49 -12.99,-16.32c0,-7.64 5.17,-14.09 12.23,-16.02c-0.08,-2.32 -0.03,-4.62 0.21,-6.88c0.32,-2.99 0.95,-5.85 1.91,-8.56c5.5,-15.54 15.29,-24.12 29.03,-26.82a21,21 0 0 1 7.05,-0.22a62,62 0 0 1 -5.05,-5.3c-8.25,-9.82 -11.88,-20.6 -8.88,-31.09l0.69,-2.42zm86.75,114.29l-1.09,0.4c-0.23,0.08 -0.47,0.15 -0.71,0.23c-2.13,0.75 -4.31,1.43 -6.54,2.07c-1.37,0.4 -1.37,0.4 -2.68,0.77l-0.11,0.52a18,18 0 0 1 -1.4,4l-0.6,1.18c-0.11,0.22 -0.19,0.46 -0.29,0.7a17.66,17.66 0 0 0 -1.42,8.35l0,0.33l0.01,1.29c0,5.87 -4.69,9.83 -10.79,9.83a10.73,10.73 0 0 1 -7.84,-3.4a10.74,10.74 0 0 1 -2.78,-5.62a11,11 0 0 1 -0.15,-1.75c0,-1.22 -0.8,-2.7 -1.86,-3.36a18.1,18.1 0 0 1 -6.79,-7.35l-0.07,-0.15l-1.5,0.04c-17.22,0.29 -34.75,-1.82 -49.14,-5.11a165,165 0 0 1 -4.9,-1.19l-1.19,-0.32l-0.1,-0.03a94,94 0 0 0 -4.47,-1.13l0.27,126.62c0,0.51 0.27,1 0.63,1.22q0.98,0.58 2.21,1.13l0.85,0.36q1.31,0.55 2.86,1.07l1.06,0.34a71,71 0 0 0 1.68,0.49l1.18,0.32l1.24,0.32l1.29,0.3l1.34,0.29q0.34,0.08 0.69,0.15l1.41,0.28q0.72,0.14 1.46,0.27l1.51,0.26q0.77,0.13 1.57,0.25l1.61,0.24l1.65,0.22q0.42,0.06 0.85,0.11l1.73,0.21l1.78,0.2l1.82,0.18l0.93,0.08l1.9,0.17l1.94,0.14l1.99,0.13l2.04,0.12l2.08,0.1l1.05,0.05l2.15,0.07q0.54,0.02 1.09,0.04l2.22,0.05l1.12,0.02l2.28,0.03q1.15,0 2.33,0l1.13,0q2.84,-0.01 5.53,-0.09l2.14,-0.08q0.53,-0.01 1.05,-0.04l2.06,-0.1l2.02,-0.13q0.5,-0.03 1,-0.06l1.95,-0.16l0.96,-0.08l1.88,-0.17l0.93,-0.1l1.81,-0.2l0.89,-0.11l1.74,-0.22l1.7,-0.25l1.65,-0.25q0.82,-0.14 1.61,-0.28l1.56,-0.28q0.76,-0.15 1.51,-0.3l1.46,-0.32l1.42,-0.32q1.39,-0.33 2.69,-0.69l1.27,-0.36q0.31,-0.09 0.62,-0.18l1.2,-0.38l1.15,-0.38c3.94,-1.37 6.99,-2.9 9.11,-4.5c0.35,-0.29 0.55,-0.71 0.55,-1.17l0.01,-16.98c0,-1.63 0.66,-3.2 1.82,-4.33a6.04,6.04 0 0 1 4.36,-1.73l2.66,0.02l3.94,0.03l5.18,0l2.12,0a14.8,14.8 0 0 0 10.5,-4.31a14.8,14.8 0 0 0 4.35,-10.48l0,-61.48a14.79,14.79 0 0 0 -14.79,-14.79l-14.07,0a6.06,6.06 0 0 1 -6.07,-6.07l0,-4.81zm19.09,21.53a7.01,7.01 0 0 1 7.02,7.01l0,55.17a7.01,7.01 0 0 1 -7.02,7.01l-12.07,0a7.01,7.01 0 0 1 -7.02,-7.01l0,-55.17a7.01,7.01 0 0 1 7.02,-7.01l12.07,0zm0,4.54l-12.07,0c-0.66,0 -1.29,0.26 -1.75,0.72a2.48,2.48 0 0 0 -0.72,1.75l0,55.17a2.47,2.47 0 0 0 2.47,2.47l12.07,0c0.66,0 1.29,-0.26 1.75,-0.72c0.46,-0.47 0.72,-1.09 0.72,-1.75l0,-55.17a2.47,2.47 0 0 0 -2.47,-2.47m-109.63,-69.56c-7.42,0 -13.74,5.33 -15.05,12.57l-0.32,1.8l-0.95,0.03l-0.88,0.03a12,12 0 0 0 -3.61,0.7c-4.7,1.66 -8.05,6.13 -8.05,11.38c0,5.34 3.5,9.98 8.44,11.61c0.47,0.16 0.95,0.29 1.45,0.39c1.64,0.3 3.26,0.65 4.88,1.03c1.34,0.32 2.68,0.66 4,1.03c0.57,0.16 1.18,0.3 1.76,0.45c0.81,0.2 1.6,0.41 2.43,0.61c15.14,3.63 34.25,5.94 52.71,5.32l1.62,-0.06l0.58,1.51a13.6,13.6 0 0 0 5.66,6.76c2.43,1.51 4.02,4.46 4.02,7.23l0.01,0.33a6.2,6.2 0 0 0 0.98,3.01c1.11,1.73 3.03,2.89 5.24,2.89c3.74,0 6.24,-2.11 6.24,-5.29l0,-1.3l0,-0.15a21.97,21.97 0 0 1 2.52,-11.92l0.27,-0.52a13.5,13.5 0 0 0 1.28,-4.54l0.16,-1.58l1.55,-0.39c1.59,-0.4 3.12,-0.85 4.65,-1.3q2.02,-0.59 3.99,-1.22a88,88 0 0 0 3.82,-1.34l0.71,-0.26a24,24 0 0 1 1.64,-0.48c0.92,-0.25 1.85,-0.46 2.8,-0.6l0.4,-0.06l0.13,-0.03a12.1,12.1 0 0 0 9.9,-11.89c0,-6.16 -4.61,-11.23 -10.56,-11.99a12,12 0 0 0 -1.53,-0.1a12.1,12.1 0 0 0 -5.93,1.56l-0.26,0.14l-3.97,1.03l-0.65,-2.05a16.02,16.02 0 0 0 -15.27,-11.18c-8.84,0 -16.01,7.17 -16.01,16.02q0,0.81 0.08,1.61l1.71,16.3l0.48,4.54l-0.07,0l-1.49,-4.54l-5.04,-15.36a14.55,14.55 0 0 0 -13.82,-10.01a14.55,14.55 0 0 0 -13.86,10.11l-0.59,1.87l-4.66,-0.76l0.89,-2.56c0.58,-1.65 0.88,-3.35 0.88,-5.07c0,-8.46 -6.85,-15.31 -15.31,-15.31m46.24,-53.09l-0.56,0.55c-5.07,5.06 -9.82,13.54 -10.11,18.77c-0.29,5.22 0.56,11.71 0.56,11.71l-3.2,-0.62a36,36 0 0 1 -4.07,-1.02l-0.99,-0.32q-0.26,-0.08 -0.53,-0.17l-0.18,-0.07l-0.94,-0.32l-3.74,-1.34l-1.03,-0.35c-4.18,-1.36 -7.14,-1.72 -10.6,-1.04c-12.15,2.39 -20.65,9.84 -25.62,23.87c-0.84,2.37 -1.39,4.88 -1.67,7.53c-0.01,0.05 -0.01,0.09 -0.01,0.14c3.49,-5.19 9.35,-8.6 15.94,-8.77l0.52,0c9.78,0 17.91,7.07 19.55,16.39l0.07,0.46l0.49,-0.45a19.06,19.06 0 0 1 12.02,-4.68l0.51,0a19.06,19.06 0 0 1 14.14,6.27l0.21,0.23l0.13,-0.44c2.5,-8.3 10.11,-14.39 19.17,-14.62l0.51,0a20.56,20.56 0 0 1 18.67,11.93l0.11,0.26l0.22,-0.11a16.6,16.6 0 0 1 4.14,-1.3c-0.04,-10.4 -1.87,-16.48 -5.77,-22.94l-0.62,-1.01l-0.66,-1.02c-4.55,-6.37 -12.58,-11.78 -20.54,-12.03c-3.88,-0.12 -6.01,0.48 -10.34,2.49l-0.72,0.33c-3.97,1.8 -6.28,2.48 -10,2.62l-2.15,0.08l-0.19,-2.15c-0.74,-8.13 1.56,-15.23 5.83,-21.17c1.44,-2.01 2.89,-3.61 4.16,-4.8l0.08,-0.07l-0.5,-0.59l-0.59,-0.64a17,17 0 0 0 -1.39,-1.34l-0.31,-0.25zm-39.34,-11.52l-0.06,0.37c-1.16,7.95 2.04,16.21 8.62,24.03c4.01,4.77 9.17,9.09 13.59,11.8c0.68,0.42 1.35,0.81 2,1.15l0.37,0.19l-0.01,-0.36a63,63 0 0 0 -0.41,-6.64c-1.73,-14.64 -8.95,-23.79 -23.86,-30.43l-0.24,-0.11z" fill="#010202" id="svg_7"/>
 </g><script xmlns="" type="module" src="moz-extension://a1b93131-a221-4623-b8b6-11764e326068/assets/detector.d8bf3127.js"/>
</svg>
